<svg width="30" height="26" viewBox="0 0 30 26" fill="none" xmlns="http://www.w3.org/2000/svg">
<path d="M19.1569 21.8C17.7928 24.1628 17.1107 25.3442 16.2202 25.7406C15.4435 26.0865 14.5565 26.0865 13.7798 25.7406C12.8893 25.3442 12.2072 24.1628 10.8431 21.8L2.70244 7.7C1.33829 5.33722 0.656214 4.15583 0.758105 3.18641C0.84698 2.34084 1.29047 1.5727 1.97832 1.07295C2.76691 0.499997 4.13106 0.499997 6.85936 0.499998L23.1406 0.499999C25.8689 0.499999 27.2331 0.499999 28.0217 1.07295C28.7095 1.5727 29.153 2.34084 29.2419 3.18641C29.3438 4.15583 28.6617 5.33722 27.2976 7.7L19.1569 21.8Z" fill="white"/>
</svg>
