<svg width="40" height="40" viewBox="0 0 40 40" fill="none" xmlns="http://www.w3.org/2000/svg">
<path d="M17.3721 19.6909C16.8198 19.6909 16.3721 20.1386 16.3721 20.6909C16.3721 21.2432 16.8198 21.6909 17.3721 21.6909V19.6909ZM39.7071 21.398C40.0976 21.0075 40.0976 20.3743 39.7071 19.9838L33.3431 13.6198C32.9526 13.2293 32.3195 13.2293 31.9289 13.6198C31.5384 14.0104 31.5384 14.6435 31.9289 15.0341L37.5858 20.6909L31.9289 26.3478C31.5384 26.7383 31.5384 27.3715 31.9289 27.762C32.3195 28.1525 32.9526 28.1525 33.3431 27.762L39.7071 21.398ZM26.2036 13.2018C26.2036 13.7541 26.6513 14.2018 27.2036 14.2018C27.7559 14.2018 28.2036 13.7541 28.2036 13.2018H26.2036ZM27.2036 1H28.2036C28.2036 0.447715 27.7559 0 27.2036 0V1ZM1 1V0C0.447715 0 0 0.447715 0 1L1 1ZM1 39H0C0 39.5523 0.447715 40 1 40L1 39ZM27.2036 39V40C27.7559 40 28.2036 39.5523 28.2036 39H27.2036ZM28.2036 27.1468C28.2036 26.5945 27.7559 26.1468 27.2036 26.1468C26.6513 26.1468 26.2036 26.5945 26.2036 27.1468H28.2036ZM17.3721 21.6909H39V19.6909H17.3721V21.6909ZM28.2036 13.2018V1H26.2036V13.2018H28.2036ZM27.2036 0H1V2H27.2036V0ZM0 1V39H2V1H0ZM1 40H27.2036V38H1V40ZM28.2036 39V27.1468H26.2036V39H28.2036Z" fill="white"/>
</svg>
